<svg xmlns="http://www.w3.org/2000/svg" xmlns:xlink="http://www.w3.org/1999/xlink" width="512" zoomAndPan="magnify" viewBox="0 0 384 383.999986" height="512" preserveAspectRatio="xMidYMid meet" version="1.0"><defs><clipPath id="5647f4d719"><path d="M 70.367188 79 L 313.367188 79 L 313.367188 354.546875 L 70.367188 354.546875 Z M 70.367188 79 " clip-rule="nonzero"/></clipPath><clipPath id="f5f69cc986"><path d="M 127 11.796875 L 165 11.796875 L 165 58 L 127 58 Z M 127 11.796875 " clip-rule="nonzero"/></clipPath><clipPath id="cfe648b671"><path d="M 171 11.796875 L 209 11.796875 L 209 59 L 171 59 Z M 171 11.796875 " clip-rule="nonzero"/></clipPath><clipPath id="430d8d10f5"><path d="M 216 11.796875 L 253 11.796875 L 253 59 L 216 59 Z M 216 11.796875 " clip-rule="nonzero"/></clipPath></defs><g clip-path="url(#5647f4d719)"><path fill="#264de4" d="M 191.761719 354.539062 L 92.617188 327.011719 L 70.523438 79.160156 L 313.296875 79.15625 L 291.1875 326.96875 L 191.765625 354.535156 Z M 191.761719 354.539062 " fill-opacity="1" fill-rule="nonzero"/></g><path fill="#2965f1" d="M 272.253906 311.191406 L 291.15625 99.421875 L 191.914062 99.417969 L 191.914062 333.460938 Z M 272.253906 311.191406 " fill-opacity="1" fill-rule="nonzero"/><path fill="#ebebeb" d="M 121.175781 191.347656 L 123.898438 221.742188 L 191.914062 221.742188 L 191.914062 191.347656 Z M 121.175781 191.347656 " fill-opacity="1" fill-rule="nonzero"/><path fill="#ebebeb" d="M 115.699219 129.8125 L 118.464844 160.214844 L 191.914062 160.214844 L 191.914062 129.8125 Z M 115.699219 129.8125 " fill-opacity="1" fill-rule="nonzero"/><path fill="#ebebeb" d="M 191.914062 270.292969 L 191.78125 270.332031 L 157.933594 261.183594 L 155.769531 236.941406 L 125.257812 236.941406 L 129.515625 284.675781 L 191.773438 301.960938 L 191.914062 301.921875 Z M 191.914062 270.292969 " fill-opacity="1" fill-rule="nonzero"/><g clip-path="url(#f5f69cc986)"><path fill="#000000" d="M 127.660156 11.796875 L 164.472656 11.796875 L 164.472656 27.195312 L 143.054688 27.195312 L 143.054688 42.589844 L 164.472656 42.589844 L 164.472656 57.988281 L 127.660156 57.988281 Z M 127.660156 11.796875 " fill-opacity="1" fill-rule="nonzero"/></g><g clip-path="url(#cfe648b671)"><path fill="#000000" d="M 171.835938 11.796875 L 208.644531 11.796875 L 208.644531 25.1875 L 187.230469 25.1875 L 187.230469 27.863281 L 208.644531 27.863281 L 208.644531 58.65625 L 171.835938 58.65625 L 171.835938 44.601562 L 193.257812 44.601562 L 193.257812 41.921875 L 171.835938 41.921875 Z M 171.835938 11.796875 " fill-opacity="1" fill-rule="nonzero"/></g><g clip-path="url(#430d8d10f5)"><path fill="#000000" d="M 216.011719 11.796875 L 252.820312 11.796875 L 252.820312 25.1875 L 231.398438 25.1875 L 231.398438 27.863281 L 252.820312 27.863281 L 252.820312 58.65625 L 216.011719 58.65625 L 216.011719 44.601562 L 237.425781 44.601562 L 237.425781 41.921875 L 216.011719 41.921875 Z M 216.011719 11.796875 " fill-opacity="1" fill-rule="nonzero"/></g><path fill="#ffffff" d="M 262.460938 191.347656 L 267.945312 129.8125 L 191.808594 129.8125 L 191.808594 160.214844 L 234.636719 160.214844 L 231.875 191.347656 L 191.808594 191.347656 L 191.808594 221.742188 L 229.238281 221.742188 L 225.707031 261.164062 L 191.808594 270.320312 L 191.808594 301.941406 L 254.117188 284.675781 L 254.574219 279.535156 L 261.71875 199.507812 Z M 262.460938 191.347656 " fill-opacity="1" fill-rule="nonzero"/></svg>