<svg xmlns="http://www.w3.org/2000/svg" xmlns:xlink="http://www.w3.org/1999/xlink" width="512" zoomAndPan="magnify" viewBox="0 0 384 383.999986" height="512" preserveAspectRatio="xMidYMid meet" version="1.0"><defs><clipPath id="ae005fb61a"><path d="M 223 131 L 370.113281 131 L 370.113281 251 L 223 251 Z M 223 131 " clip-rule="nonzero"/></clipPath></defs><g clip-path="url(#ae005fb61a)"><path fill="#362701" d="M 252.734375 173.433594 C 246.3125 173.433594 241.523438 176.59375 241.523438 184.195312 C 241.523438 189.867188 244.675781 193.894531 252.382812 193.894531 C 258.921875 193.894531 263.359375 190.039062 263.359375 183.957031 C 263.359375 177.054688 259.390625 173.433594 252.734375 173.433594 Z M 239.890625 227.101562 C 238.367188 228.96875 236.855469 230.957031 236.855469 233.246094 C 236.855469 237.917969 242.804688 239.328125 250.984375 239.328125 C 257.757812 239.328125 266.980469 238.855469 266.980469 232.546875 C 266.980469 228.800781 262.542969 228.566406 256.933594 228.214844 L 239.933594 227.050781 Z M 274.457031 173.78125 C 276.554688 176.480469 278.78125 180.210938 278.78125 185.59375 C 278.78125 198.566406 268.578125 206.167969 253.90625 206.167969 C 250.128906 206.167969 246.824219 205.695312 244.675781 205.117188 L 240.824219 211.261719 L 252.269531 211.960938 C 272.484375 213.246094 284.382812 213.835938 284.382812 229.375 C 284.382812 242.824219 272.597656 250.410156 252.269531 250.410156 C 231.132812 250.410156 223.078125 245.035156 223.078125 235.757812 C 223.078125 230.5 225.421875 227.691406 229.503906 223.828125 C 225.648438 222.203125 224.363281 219.277344 224.363281 216.121094 C 224.363281 213.550781 225.648438 211.203125 227.753906 209.03125 L 234.992188 202.015625 C 229.269531 199.214844 224.941406 193.128906 224.941406 184.523438 C 224.941406 171.078125 233.820312 161.847656 251.6875 161.847656 C 256.714844 161.847656 259.75 162.3125 262.4375 163.019531 L 285.210938 163.019531 L 285.210938 172.953125 L 274.460938 173.773438 M 305.75 152.535156 C 299.140625 152.535156 295.238281 148.679688 295.238281 142.007812 C 295.238281 135.335938 299.09375 131.722656 305.75 131.722656 C 312.523438 131.722656 316.378906 135.351562 316.378906 142.007812 C 316.378906 148.664062 312.523438 152.535156 305.753906 152.535156 Z M 290.640625 222.796875 L 290.640625 213.570312 L 296.601562 212.75 C 298.230469 212.515625 298.46875 212.164062 298.46875 210.40625 L 298.46875 176.042969 C 298.46875 174.757812 298.117188 173.941406 296.949219 173.585938 L 290.640625 171.367188 L 291.921875 161.902344 L 316.101562 161.902344 L 316.101562 210.425781 C 316.101562 212.296875 316.214844 212.527344 317.972656 212.769531 L 323.921875 213.585938 L 323.921875 222.808594 L 290.628906 222.808594 M 370.152344 218.269531 C 365.125 220.726562 357.765625 222.996094 351.109375 222.996094 C 337.207031 222.996094 331.957031 217.390625 331.957031 204.175781 L 331.957031 173.539062 C 331.957031 172.839844 331.957031 172.367188 331.011719 172.367188 L 322.890625 172.367188 L 322.890625 161.96875 C 333.164062 160.832031 337.257812 155.652344 338.542969 142.90625 L 349.636719 142.90625 L 349.636719 159.511719 C 349.636719 160.324219 349.636719 160.683594 350.574219 160.683594 L 367.046875 160.683594 L 367.046875 172.367188 L 349.59375 172.367188 L 349.59375 200.261719 C 349.59375 207.160156 351.230469 209.847656 357.523438 209.847656 C 360.796875 209.847656 364.136719 209.03125 366.984375 207.980469 L 370.140625 218.265625 " fill-opacity="1" fill-rule="nonzero"/></g><path fill="#f03c2e" d="M 172.042969 184.707031 L 102.03125 114.625 C 98.003906 110.589844 91.464844 110.589844 87.429688 114.625 L 72.894531 129.179688 L 91.332031 147.636719 C 95.621094 146.1875 100.53125 147.164062 103.9375 150.574219 C 104.75 151.390625 105.4375 152.300781 105.992188 153.308594 C 106.550781 154.320312 106.957031 155.386719 107.214844 156.507812 C 107.472656 157.632812 107.570312 158.769531 107.507812 159.921875 C 107.445312 161.070312 107.226562 162.191406 106.851562 163.28125 L 124.621094 181.070312 C 128.871094 179.589844 133.878906 180.550781 137.316406 183.984375 C 138.078125 184.746094 138.730469 185.59375 139.269531 186.53125 C 139.8125 187.464844 140.222656 188.453125 140.5 189.496094 C 140.78125 190.539062 140.921875 191.601562 140.921875 192.679688 C 140.921875 193.761719 140.78125 194.824219 140.5 195.867188 C 140.222656 196.910156 139.8125 197.898438 139.273438 198.835938 C 138.734375 199.769531 138.082031 200.617188 137.316406 201.382812 C 136.554688 202.144531 135.703125 202.796875 134.769531 203.335938 C 133.835938 203.875 132.847656 204.28125 131.804688 204.558594 C 130.761719 204.839844 129.703125 204.980469 128.625 204.980469 C 127.546875 204.980469 126.484375 204.839844 125.445312 204.558594 C 124.402344 204.28125 123.414062 203.871094 122.480469 203.332031 C 121.546875 202.792969 120.699219 202.140625 119.9375 201.375 C 116.328125 197.761719 115.441406 192.449219 117.265625 188 L 100.738281 171.453125 L 100.738281 215.117188 C 101.871094 215.699219 103.011719 216.464844 103.988281 217.441406 C 108.785156 222.246094 108.785156 230.027344 103.988281 234.839844 C 103.417969 235.410156 102.796875 235.917969 102.125 236.367188 C 101.457031 236.816406 100.746094 237.195312 100.003906 237.507812 C 99.257812 237.816406 98.488281 238.050781 97.695312 238.207031 C 96.90625 238.363281 96.105469 238.441406 95.300781 238.441406 C 94.492188 238.441406 93.695312 238.363281 92.902344 238.207031 C 92.113281 238.050781 91.34375 237.816406 90.597656 237.507812 C 89.851562 237.195312 89.144531 236.816406 88.472656 236.367188 C 87.804688 235.917969 87.183594 235.410156 86.613281 234.839844 C 81.816406 230.023438 81.816406 222.246094 86.613281 217.441406 C 87.777344 216.277344 89.117188 215.382812 90.636719 214.757812 L 90.636719 170.695312 C 89.21875 170.09375 87.804688 169.207031 86.613281 168.050781 C 85.75 167.1875 85.03125 166.21875 84.460938 165.140625 C 83.886719 164.066406 83.480469 162.925781 83.246094 161.730469 C 83.011719 160.535156 82.953125 159.328125 83.078125 158.113281 C 83.199219 156.898438 83.496094 155.730469 83.96875 154.605469 L 65.789062 136.402344 L 17.753906 184.375 C 17.277344 184.855469 16.847656 185.378906 16.472656 185.945312 C 16.097656 186.507812 15.78125 187.105469 15.523438 187.730469 C 15.265625 188.359375 15.070312 189.003906 14.9375 189.671875 C 14.804688 190.335938 14.738281 191.007812 14.738281 191.6875 C 14.738281 192.363281 14.804688 193.035156 14.9375 193.703125 C 15.070312 194.367188 15.265625 195.015625 15.523438 195.640625 C 15.78125 196.269531 16.097656 196.863281 16.472656 197.429688 C 16.847656 197.992188 17.277344 198.515625 17.753906 198.996094 L 87.769531 269.074219 C 91.796875 273.109375 98.335938 273.109375 102.371094 269.074219 L 172.042969 199.324219 C 172.519531 198.84375 172.945312 198.324219 173.320312 197.757812 C 173.695312 197.191406 174.015625 196.597656 174.273438 195.96875 C 174.53125 195.34375 174.726562 194.695312 174.859375 194.03125 C 174.988281 193.367188 175.054688 192.695312 175.054688 192.015625 C 175.054688 191.335938 174.988281 190.664062 174.859375 190 C 174.726562 189.335938 174.53125 188.6875 174.273438 188.0625 C 174.015625 187.433594 173.695312 186.839844 173.320312 186.273438 C 172.945312 185.707031 172.519531 185.1875 172.042969 184.707031 " fill-opacity="1" fill-rule="nonzero"/></svg>