<svg xmlns="http://www.w3.org/2000/svg" xmlns:xlink="http://www.w3.org/1999/xlink" width="512" zoomAndPan="magnify" viewBox="0 0 384 383.999986" height="512" preserveAspectRatio="xMidYMid meet" version="1.0"><defs><clipPath id="fc5031dc5e"><path d="M 70.578125 88 L 313.578125 88 L 313.578125 363.515625 L 70.578125 363.515625 Z M 70.578125 88 " clip-rule="nonzero"/></clipPath><clipPath id="3405d18983"><path d="M 93 20.765625 L 139 20.765625 L 139 67 L 93 67 Z M 93 20.765625 " clip-rule="nonzero"/></clipPath><clipPath id="b3e01cbdb6"><path d="M 145 20.765625 L 188 20.765625 L 188 67 L 145 67 Z M 145 20.765625 " clip-rule="nonzero"/></clipPath><clipPath id="5081d94485"><path d="M 194 20.765625 L 247 20.765625 L 247 67 L 194 67 Z M 194 20.765625 " clip-rule="nonzero"/></clipPath><clipPath id="661727d053"><path d="M 254 20.765625 L 292 20.765625 L 292 67 L 254 67 Z M 254 20.765625 " clip-rule="nonzero"/></clipPath></defs><g clip-path="url(#fc5031dc5e)"><path fill="#e44d26" d="M 313.511719 88.121094 L 291.394531 335.9375 L 191.972656 363.5 L 92.828125 335.976562 L 70.734375 88.121094 L 313.507812 88.117188 L 313.519531 88.117188 Z M 313.511719 88.121094 " fill-opacity="1" fill-rule="nonzero"/></g><path fill="#f16529" d="M 192.125 342.433594 L 272.46875 320.160156 L 291.367188 108.390625 L 192.125 108.386719 Z M 192.125 342.433594 " fill-opacity="1" fill-rule="nonzero"/><path fill="#ebebeb" d="M 149.128906 169.183594 L 192.125 169.183594 L 192.125 138.78125 L 115.914062 138.78125 L 116.640625 146.9375 L 124.109375 230.707031 L 192.125 230.707031 L 192.125 200.316406 L 151.90625 200.316406 Z M 149.128906 169.183594 " fill-opacity="1" fill-rule="nonzero"/><path fill="#ebebeb" d="M 155.980469 245.910156 L 125.46875 245.910156 L 129.726562 293.640625 L 191.984375 310.925781 L 192.125 310.890625 L 192.125 279.261719 L 191.992188 279.296875 L 158.144531 270.152344 Z M 155.980469 245.910156 " fill-opacity="1" fill-rule="nonzero"/><g clip-path="url(#3405d18983)"><path fill="#000000" d="M 93.324219 20.765625 L 108.769531 20.765625 L 108.769531 36.027344 L 122.898438 36.027344 L 122.898438 20.765625 L 138.34375 20.765625 L 138.34375 66.984375 L 122.898438 66.984375 L 122.898438 51.507812 L 108.769531 51.507812 L 108.769531 66.984375 L 93.324219 66.984375 Z M 93.324219 20.765625 " fill-opacity="1" fill-rule="nonzero"/></g><g clip-path="url(#b3e01cbdb6)"><path fill="#000000" d="M 158.65625 36.09375 L 145.058594 36.09375 L 145.058594 20.765625 L 187.710938 20.765625 L 187.710938 36.09375 L 174.101562 36.09375 L 174.101562 66.984375 L 158.65625 66.984375 Z M 158.65625 36.09375 " fill-opacity="1" fill-rule="nonzero"/></g><g clip-path="url(#5081d94485)"><path fill="#000000" d="M 194.476562 20.765625 L 210.578125 20.765625 L 220.488281 37.003906 L 230.382812 20.765625 L 246.496094 20.765625 L 246.496094 66.984375 L 231.117188 66.984375 L 231.117188 44.074219 L 220.488281 60.507812 L 220.21875 60.507812 L 209.589844 44.074219 L 209.589844 66.984375 L 194.476562 66.984375 Z M 194.476562 20.765625 " fill-opacity="1" fill-rule="nonzero"/></g><g clip-path="url(#661727d053)"><path fill="#000000" d="M 254.183594 20.765625 L 269.632812 20.765625 L 269.632812 51.707031 L 291.359375 51.707031 L 291.359375 66.984375 L 254.183594 66.984375 Z M 254.183594 20.765625 " fill-opacity="1" fill-rule="nonzero"/></g><path fill="#ffffff" d="M 192.023438 230.707031 L 229.453125 230.707031 L 225.921875 270.132812 L 192.023438 279.289062 L 192.023438 310.90625 L 254.328125 293.640625 L 254.785156 288.503906 L 261.933594 208.472656 L 262.675781 200.316406 L 192.023438 200.316406 Z M 192.023438 230.707031 " fill-opacity="1" fill-rule="nonzero"/><path fill="#ffffff" d="M 192.023438 169.105469 L 192.023438 169.183594 L 265.433594 169.183594 L 266.042969 162.347656 L 267.433594 146.9375 L 268.15625 138.78125 L 192.023438 138.78125 Z M 192.023438 169.105469 " fill-opacity="1" fill-rule="nonzero"/></svg>