<svg xmlns="http://www.w3.org/2000/svg" xmlns:xlink="http://www.w3.org/1999/xlink" width="512" zoomAndPan="magnify" viewBox="0 0 384 383.999986" height="512" preserveAspectRatio="xMidYMid meet" version="1.0"><defs><clipPath id="386de5d7a8"><path d="M 93 42.03125 L 292 42.03125 L 292 238 L 93 238 Z M 93 42.03125 " clip-rule="nonzero"/></clipPath><clipPath id="3b66d290f5"><path d="M 38.398438 275 L 268 275 L 268 342 L 38.398438 342 Z M 38.398438 275 " clip-rule="nonzero"/></clipPath><clipPath id="b3c4385b0e"><path d="M 80 254 L 345.898438 254 L 345.898438 321 L 80 321 Z M 80 254 " clip-rule="nonzero"/></clipPath></defs><g clip-path="url(#386de5d7a8)"><path fill="#0868ac" d="M 105.667969 88.214844 C 88.101562 113.910156 90.289062 147.332031 103.671875 174.601562 L 104.65625 176.546875 L 105.320312 177.777344 C 105.445312 178.015625 105.585938 178.25 105.714844 178.484375 C 105.945312 178.914062 106.179688 179.332031 106.378906 179.753906 L 107.660156 181.992188 L 108.390625 183.222656 L 109.875 185.585938 L 110.542969 186.582031 C 111.207031 187.648438 111.957031 188.703125 112.695312 189.746094 C 112.710938 189.773438 112.734375 189.804688 112.753906 189.828125 C 112.871094 189.996094 113 190.160156 113.089844 190.328125 C 113.726562 191.226562 114.417969 192.109375 115.082031 192.984375 L 115.820312 193.941406 L 117.632812 196.210938 L 118.324219 197.054688 C 119.148438 198.046875 119.992188 199.027344 120.851562 199.992188 L 120.90625 200.042969 C 120.9375 200.085938 120.972656 200.109375 121.003906 200.152344 C 121.839844 201.09375 122.695312 202.011719 123.574219 202.910156 L 124.398438 203.753906 L 126.449219 205.800781 L 127.285156 206.613281 C 128.207031 207.496094 129.144531 208.363281 130.097656 209.214844 L 130.628906 209.679688 L 133.179688 211.871094 L 134.234375 212.730469 L 136.363281 214.390625 L 137.5 215.269531 L 140.753906 217.648438 C 140.835938 217.703125 140.910156 217.761719 140.992188 217.820312 C 141.757812 218.351562 142.53125 218.867188 143.308594 219.382812 L 144.316406 220.0625 L 147.945312 222.320312 L 148.949219 222.894531 L 151.675781 224.453125 C 152.175781 224.722656 152.683594 224.984375 153.183594 225.242188 L 155.132812 226.238281 L 155.578125 226.457031 L 156.378906 226.851562 L 159.46875 228.304688 L 160.125 228.636719 C 161.316406 229.167969 162.519531 229.675781 163.730469 230.164062 L 164.609375 230.515625 L 168.007812 231.796875 L 168.433594 231.949219 C 169.691406 232.394531 170.953125 232.8125 172.226562 233.214844 L 173.140625 233.492188 C 174.46875 233.890625 175.71875 234.367188 177.054688 234.621094 C 262.003906 250.425781 286.6875 182.703125 286.6875 182.703125 C 265.960938 210.179688 229.175781 217.425781 194.320312 209.359375 C 193 209.027344 191.71875 208.640625 190.429688 208.25 L 189.460938 207.917969 C 188.203125 207.527344 186.953125 207.109375 185.714844 206.679688 L 185.199219 206.488281 C 184.09375 206.089844 182.992188 205.675781 181.898438 205.242188 L 180.96875 204.871094 C 179.769531 204.390625 178.582031 203.886719 177.402344 203.363281 L 176.691406 203.042969 L 173.683594 201.613281 L 172.820312 201.191406 C 172.039062 200.796875 171.265625 200.394531 170.492188 199.984375 L 168.941406 199.152344 C 168.003906 198.640625 167.074219 198.109375 166.152344 197.5625 L 165.210938 197.03125 C 163.988281 196.300781 162.777344 195.535156 161.582031 194.769531 C 161.25 194.554688 160.929688 194.324219 160.601562 194.105469 L 158.015625 192.359375 L 157.1875 191.761719 L 154.742188 189.964844 L 153.65625 189.136719 L 151.453125 187.382812 L 150.46875 186.582031 L 147.726562 184.257812 C 147.632812 184.175781 147.527344 184.089844 147.394531 184.003906 C 146.414062 183.128906 145.453125 182.230469 144.507812 181.332031 L 143.695312 180.535156 L 141.621094 178.464844 L 140.808594 177.636719 C 139.945312 176.738281 139.097656 175.824219 138.265625 174.898438 C 138.226562 174.851562 138.179688 174.808594 138.140625 174.765625 C 137.261719 173.785156 136.402344 172.789062 135.558594 171.773438 L 134.882812 170.957031 L 133.023438 168.621094 L 132.339844 167.757812 L 130.195312 164.851562 C 110.84375 137.988281 103.925781 100.941406 119.355469 70.511719 M 160.199219 66.566406 C 147.496094 85.171875 148.183594 110.070312 158.09375 129.746094 C 159.753906 133.054688 161.625 136.238281 163.714844 139.292969 C 165.613281 142.066406 167.726562 145.375 170.253906 147.597656 C 171.167969 148.597656 172.125 149.59375 173.101562 150.609375 C 173.347656 150.867188 173.601562 151.109375 173.855469 151.363281 C 174.804688 152.304688 175.773438 153.222656 176.769531 154.117188 C 176.808594 154.152344 176.84375 154.191406 176.886719 154.226562 C 178.003906 155.21875 179.148438 156.179688 180.316406 157.117188 L 181.085938 157.726562 C 182.25 158.640625 183.433594 159.523438 184.644531 160.371094 C 184.675781 160.398438 184.710938 160.421875 184.746094 160.449219 C 185.277344 160.824219 185.824219 161.179688 186.367188 161.539062 C 186.625 161.710938 186.871094 161.894531 187.132812 162.054688 C 188 162.625 188.878906 163.171875 189.769531 163.699219 L 190.140625 163.921875 L 192.46875 165.25 C 192.742188 165.40625 193.019531 165.542969 193.300781 165.6875 L 194.960938 166.546875 C 195.046875 166.589844 195.128906 166.621094 195.207031 166.660156 C 196.328125 167.226562 197.457031 167.757812 198.609375 168.273438 C 198.855469 168.382812 199.109375 168.480469 199.363281 168.589844 C 200.28125 168.988281 201.214844 169.371094 202.15625 169.742188 L 203.351562 170.1875 C 204.199219 170.503906 205.054688 170.804688 205.914062 171.09375 L 207.070312 171.46875 C 208.289062 171.859375 209.496094 172.34375 210.769531 172.558594 C 276.359375 183.617188 291.503906 132.222656 291.503906 132.222656 C 277.855469 152.226562 251.421875 161.773438 223.210938 154.324219 C 221.964844 153.992188 220.726562 153.628906 219.5 153.226562 C 219.121094 153.113281 218.753906 152.988281 218.382812 152.894531 C 217.511719 152.609375 216.644531 152.304688 215.785156 151.984375 L 214.609375 151.539062 C 213.667969 151.207031 212.738281 150.792969 211.816406 150.394531 C 211.566406 150.285156 211.3125 150.183594 211.0625 150.066406 C 209.90625 149.5625 208.765625 149.023438 207.636719 148.449219 C 207.058594 148.160156 206.492188 147.859375 205.921875 147.558594 L 204.929688 147.042969 C 204.199219 146.640625 203.476562 146.222656 202.761719 145.796875 L 202.242188 145.464844 C 201.355469 144.933594 200.480469 144.390625 199.613281 143.828125 C 199.347656 143.65625 199.089844 143.496094 198.824219 143.289062 L 197.121094 142.144531 C 195.917969 141.292969 194.734375 140.414062 193.574219 139.503906 L 192.777344 138.867188 C 180.433594 128.945312 170.644531 115.390625 165.992188 100.015625 C 161.113281 84.066406 162.167969 66.175781 170.644531 51.652344 M 206.050781 50.390625 C 198.5625 61.605469 197.828125 75.535156 203.058594 87.921875 C 208.539062 101.070312 219.769531 111.386719 232.871094 116.273438 C 233.410156 116.480469 233.953125 116.664062 234.535156 116.847656 L 235.253906 117.082031 C 236.023438 117.328125 236.792969 117.613281 237.585938 117.765625 C 273.804688 124.886719 283.625 98.855469 286.242188 95.023438 C 277.636719 107.632812 263.175781 110.660156 245.429688 106.277344 C 244.035156 105.925781 242.488281 105.414062 241.109375 104.925781 C 239.371094 104.300781 237.671875 103.582031 236.011719 102.769531 C 232.84375 101.21875 229.867188 99.371094 227.074219 97.21875 C 211.164062 84.957031 201.296875 61.574219 211.65625 42.527344 " fill-opacity="1" fill-rule="nonzero"/></g><path fill="#131b28" d="M 126.070312 288.5 L 123.617188 297.191406 L 126.070312 288.503906 Z M 138.691406 307.367188 L 135.988281 307.351562 Z M 138.027344 320.34375 L 121.828125 320.40625 Z M 141.417969 307.386719 L 138.710938 307.371094 Z M 139.484375 319.242188 L 142.308594 308.488281 Z M 199.101562 269.710938 L 193.847656 294.410156 Z M 185.585938 269.710938 L 181.59375 288.164062 Z M 185.585938 269.710938 " fill-opacity="1" fill-rule="nonzero"/><path fill="#131b28" d="M 198.171875 268.597656 L 186.933594 268.597656 C 186.308594 268.597656 185.6875 269.097656 185.554688 269.707031 L 177.574219 306.613281 C 177.441406 307.21875 176.824219 307.71875 176.203125 307.71875 L 168.246094 307.71875 C 160.371094 307.71875 161.28125 302.28125 162.925781 294.828125 L 162.976562 294.601562 L 163.929688 289.519531 L 164.339844 287.425781 L 167.972656 269.707031 C 168.097656 269.097656 167.691406 268.59375 167.066406 268.59375 L 155.527344 268.59375 C 155.199219 268.605469 154.910156 268.714844 154.65625 268.921875 C 154.402344 269.125 154.234375 269.386719 154.15625 269.707031 L 148.960938 294.339844 C 146.101562 307.375 146.859375 319.808594 162.394531 320.199219 L 162.84375 320.207031 L 187.222656 320.207031 C 187.847656 320.207031 188.460938 319.710938 188.59375 319.097656 L 199.109375 269.707031 C 199.242188 269.09375 198.832031 268.59375 198.210938 268.59375 Z M 243.015625 307.847656 C 243.640625 307.847656 244.015625 308.347656 243.925781 308.957031 L 242.835938 314.292969 M 241.742188 319.628906 L 242.835938 314.292969 Z M 240.375 320.75 L 219.660156 320.851562 Z M 240.375 320.75 " fill-opacity="1" fill-rule="nonzero"/><path fill="#131b28" d="M 212.949219 300.984375 C 212.9375 300.398438 213.601562 299.394531 214.226562 299.394531 L 212.824219 299.371094 C 212.160156 305.730469 212.949219 300.984375 212.949219 300.984375 Z M 220.683594 320.847656 L 220.464844 320.847656 Z M 243.015625 307.847656 C 243.640625 307.847656 244.015625 308.347656 243.925781 308.957031 L 242.65625 315.160156 M 226.003906 320.863281 L 225.957031 320.863281 Z M 223.242188 320.84375 L 223.082031 320.84375 Z M 222.402344 320.847656 L 222.136719 320.847656 Z M 221.582031 320.847656 L 221.347656 320.847656 Z M 223.117188 320.84375 L 222.433594 320.84375 Z M 223.117188 320.84375 " fill-opacity="1" fill-rule="nonzero"/><path fill="#131b28" d="M 225.960938 320.863281 L 223.246094 320.875 Z M 240.378906 320.78125 L 226 320.867188 Z M 241.710938 319.628906 L 242.625 315.160156 Z M 222.105469 320.847656 L 221.582031 320.847656 L 222.171875 320.847656 Z M 220.460938 320.847656 L 219.660156 320.847656 Z M 221.3125 320.847656 L 220.648438 320.847656 Z M 56.855469 301.117188 L 58.601562 293.382812 L 56.605469 302.21875 L 56.371094 303.328125 L 56.855469 301.109375 Z M 77.753906 268.472656 L 65.410156 268.472656 C 65.082031 268.484375 64.789062 268.59375 64.535156 268.796875 C 64.277344 269.003906 64.109375 269.261719 64.023438 269.578125 L 61.683594 279.878906 C 61.640625 280.015625 61.636719 280.152344 61.664062 280.289062 C 61.691406 280.429688 61.746094 280.550781 61.835938 280.664062 C 61.925781 280.773438 62.03125 280.855469 62.160156 280.914062 C 62.289062 280.96875 62.425781 280.996094 62.566406 280.984375 L 75.007812 280.984375 C 75.632812 280.984375 76.253906 280.488281 76.386719 279.878906 L 78.648438 269.554688 C 78.78125 268.949219 78.378906 268.449219 77.75 268.449219 Z M 75.070312 285.644531 L 71.410156 302.382812 Z M 39.203125 341.113281 L 49.386719 341.195312 C 46.378906 341.195312 41.414062 341.136719 39.199219 341.109375 Z M 39.203125 341.113281 " fill-opacity="1" fill-rule="nonzero"/><g clip-path="url(#3b66d290f5)"><path fill="#131b28" d="M 60.3125 285.644531 L 58.5625 293.378906 Z M 74.179688 284.539062 L 61.730469 284.539062 C 61.40625 284.550781 61.113281 284.660156 60.855469 284.863281 C 60.601562 285.066406 60.429688 285.328125 60.34375 285.644531 L 56.855469 301.113281 L 56.367188 303.332031 L 53.042969 319.125 C 52.878906 319.863281 52.679688 320.589844 52.445312 321.308594 C 52.445312 321.308594 50.117188 328.21875 46.214844 328.144531 L 42.339844 328.070312 C 42.015625 328.078125 41.722656 328.183594 41.464844 328.382812 C 41.207031 328.582031 41.03125 328.839844 40.941406 329.152344 L 38.367188 339.996094 C 38.324219 340.128906 38.316406 340.265625 38.34375 340.402344 C 38.367188 340.542969 38.421875 340.667969 38.511719 340.777344 C 38.597656 340.890625 38.703125 340.972656 38.832031 341.03125 C 38.960938 341.089844 39.09375 341.117188 39.234375 341.109375 L 49.417969 341.195312 C 59.179688 341.195312 64.324219 335.789062 67.628906 320.238281 L 75.109375 285.683594 C 75.242188 285.074219 74.835938 284.578125 74.210938 284.578125 Z M 250.949219 320.214844 C 250.324219 320.214844 249.949219 319.71875 250.050781 319.105469 L 259.410156 275.292969 M 263.957031 319.101562 L 267.746094 300.402344 Z M 263.957031 319.101562 " fill-opacity="1" fill-rule="nonzero"/></g><path fill="#131b28" d="M 250.1875 319.660156 C 250.109375 319.355469 250.152344 318.605469 250.285156 318 L 254.726562 297.199219 L 250.046875 319.105469 C 249.914062 319.71875 250.320312 320.214844 250.945312 320.214844 L 252.082031 320.214844 C 251.457031 320.214844 250.257812 319.964844 250.1875 319.660156 Z M 263.21875 319.964844 C 262.882812 320.097656 262.089844 320.214844 261.464844 320.214844 L 262.601562 320.214844 C 262.929688 320.203125 263.21875 320.09375 263.46875 319.886719 C 263.722656 319.679688 263.886719 319.417969 263.964844 319.101562 L 264.191406 317.992188 C 264.070312 318.605469 263.527344 319.828125 263.195312 319.964844 Z M 265.847656 309.753906 L 267.519531 301.5 Z M 302.78125 278.226562 L 303.296875 280.355469 C 303.441406 280.960938 303.046875 281.457031 302.421875 281.460938 " fill-opacity="1" fill-rule="nonzero"/><path fill="#131b28" d="M 264.179688 317.992188 L 265.84375 309.753906 Z M 302.273438 276.007812 L 302.78125 278.1875 Z M 267.519531 301.5 L 267.980469 299.292969 L 269.765625 290.9375 L 267.742188 300.398438 L 267.519531 301.496094 Z M 259.5625 274.574219 L 259.175781 276.398438 L 254.730469 297.199219 L 259.414062 275.292969 Z M 259.5625 274.574219 " fill-opacity="1" fill-rule="nonzero"/><g clip-path="url(#b3c4385b0e)"><path fill="#131b28" d="M 303.300781 280.355469 L 302.785156 278.226562 L 302.019531 274.90625 C 301.011719 270.984375 298.042969 268.714844 291.601562 268.714844 L 261.941406 268.695312 C 261.613281 268.707031 261.324219 268.816406 261.070312 269.019531 C 260.816406 269.226562 260.648438 269.488281 260.570312 269.804688 L 260.113281 271.972656 L 259.445312 275.253906 L 250.324219 317.960938 C 250.191406 318.570312 250.144531 319.289062 250.222656 319.621094 C 250.300781 319.953125 251.496094 320.175781 252.117188 320.175781 L 261.496094 320.175781 C 262.121094 320.175781 262.90625 320.0625 263.25 319.925781 C 263.59375 319.789062 264.09375 318.597656 264.25 317.953125 L 267.804688 300.363281 L 271.613281 282.539062 C 271.746094 281.933594 272.363281 281.4375 272.984375 281.433594 L 302.488281 281.421875 C 303.109375 281.421875 303.503906 280.921875 303.363281 280.3125 Z M 341.285156 261.105469 L 339.011719 261.117188 L 329.570312 261.117188 C 328.835938 261.160156 328.246094 261.472656 327.792969 262.054688 L 306.914062 292.621094 C 306.558594 293.136719 306.15625 293.058594 306.015625 292.453125 L 304.480469 285.71875 C 304.394531 285.402344 304.222656 285.144531 303.96875 284.9375 C 303.710938 284.734375 303.417969 284.625 303.09375 284.613281 L 289.667969 284.613281 C 289.042969 284.613281 288.671875 285.101562 288.84375 285.703125 L 294.828125 306.761719 C 295.003906 307.359375 295.011719 308.347656 294.863281 308.953125 L 292.203125 319.144531 C 292.15625 319.277344 292.144531 319.414062 292.167969 319.550781 C 292.191406 319.691406 292.246094 319.816406 292.332031 319.925781 C 292.417969 320.039062 292.523438 320.121094 292.652344 320.179688 C 292.78125 320.234375 292.917969 320.257812 293.058594 320.246094 L 306.359375 320.246094 C 306.984375 320.246094 307.621094 319.746094 307.773438 319.148438 L 310.433594 308.957031 C 310.644531 308.234375 310.964844 307.566406 311.398438 306.953125 L 345.335938 261.988281 C 345.710938 261.488281 345.507812 261.082031 344.882812 261.089844 L 341.324219 261.113281 Z M 234.628906 287.476562 C 234.546875 288.140625 233.921875 288.640625 233.296875 288.640625 L 216.273438 288.640625 C 215.683594 288.640625 215.386719 288.242188 215.476562 287.742188 L 215.488281 287.652344 L 215.566406 287.363281 C 217.226562 283.046875 220.503906 280.210938 226.722656 280.210938 C 233.730469 280.210938 235.097656 283.632812 234.621094 287.476562 Z M 229.632812 267.847656 C 207.789062 267.847656 202.609375 281.097656 199.707031 294.472656 C 196.800781 308.105469 197.054688 320.851562 219.660156 320.851562 L 223.242188 320.851562 L 226.003906 320.84375 L 240.386719 320.757812 C 240.710938 320.742188 241 320.632812 241.25 320.425781 C 241.5 320.21875 241.664062 319.957031 241.742188 319.644531 L 243.925781 308.972656 C 244.050781 308.359375 243.640625 307.863281 243.015625 307.863281 L 222.695312 307.863281 C 214.613281 307.863281 212.210938 305.714844 213.09375 299.40625 L 245.582031 299.40625 C 246.113281 299.394531 246.59375 299.074219 246.785156 298.570312 C 246.816406 298.480469 246.851562 298.382812 246.863281 298.285156 C 251.6875 280.113281 250.300781 267.859375 229.640625 267.859375 Z M 126.375 287.40625 L 126.070312 288.492188 C 126.070312 288.496094 123.617188 297.183594 123.617188 297.183594 L 121.160156 305.867188 C 121.058594 306.183594 120.875 306.4375 120.609375 306.636719 C 120.347656 306.835938 120.050781 306.945312 119.71875 306.957031 L 106.730469 306.957031 C 96.882812 306.957031 94.484375 299.257812 96.882812 287.90625 C 99.277344 276.292969 103.980469 269.074219 113.671875 268.34375 C 126.921875 267.347656 129.566406 276.65625 126.375 287.402344 Z M 135.28125 306.292969 C 135.28125 306.292969 141.398438 291.441406 142.792969 282.859375 C 144.691406 271.375 138.9375 254.71875 116.710938 254.71875 C 94.605469 254.71875 85.011719 270.617188 81.351562 287.941406 C 77.691406 305.351562 82.488281 320.625 104.460938 320.503906 L 137.996094 320.382812 C 138.328125 320.367188 138.621094 320.257812 138.882812 320.054688 C 139.140625 319.851562 139.320312 319.59375 139.417969 319.277344 L 142.242188 308.519531 C 142.289062 308.386719 142.300781 308.253906 142.28125 308.113281 C 142.257812 307.976562 142.203125 307.851562 142.117188 307.738281 C 142.03125 307.628906 141.925781 307.542969 141.796875 307.484375 C 141.667969 307.429688 141.535156 307.40625 141.394531 307.417969 L 135.984375 307.382812 C 135.453125 307.378906 135.152344 307.039062 135.214844 306.585938 C 135.226562 306.503906 135.246094 306.417969 135.28125 306.332031 Z M 135.28125 306.292969 " fill-opacity="1" fill-rule="nonzero"/></g><path fill="#131b28" d="M 244.691406 296.355469 C 244.691406 296.769531 244.355469 297.101562 243.945312 297.101562 C 243.53125 297.101562 243.199219 296.769531 243.199219 296.355469 C 243.199219 295.945312 243.53125 295.613281 243.945312 295.613281 C 244.355469 295.613281 244.691406 295.945312 244.691406 296.355469 Z M 244.691406 296.355469 " fill-opacity="1" fill-rule="nonzero"/></svg>