<svg xmlns="http://www.w3.org/2000/svg" xmlns:xlink="http://www.w3.org/1999/xlink" width="512" zoomAndPan="magnify" viewBox="0 0 384 383.999986" height="512" preserveAspectRatio="xMidYMid meet" version="1.0"><defs><clipPath id="560924ae0a"><path d="M 42.53125 42.53125 L 341.78125 42.53125 L 341.78125 341.78125 L 42.53125 341.78125 Z M 42.53125 42.53125 " clip-rule="nonzero"/></clipPath></defs><g clip-path="url(#560924ae0a)"><path fill="#f7df1e" d="M 42.53125 42.53125 L 341.78125 42.53125 L 341.78125 341.78125 L 42.53125 341.78125 Z M 42.53125 42.53125 " fill-opacity="1" fill-rule="nonzero"/></g><path fill="#000000" d="M 121.214844 292.605469 L 144.117188 278.753906 C 148.535156 286.585938 152.554688 293.210938 162.195312 293.210938 C 171.433594 293.210938 177.265625 289.589844 177.265625 275.539062 L 177.265625 179.917969 L 205.378906 179.917969 L 205.378906 275.9375 C 205.378906 305.054688 188.3125 318.320312 163.402344 318.320312 C 140.902344 318.320312 127.84375 306.667969 121.214844 292.605469 " fill-opacity="1" fill-rule="nonzero"/><path fill="#000000" d="M 220.65625 289.589844 L 243.554688 276.332031 C 249.585938 286.175781 257.417969 293.410156 271.269531 293.410156 C 282.925781 293.410156 290.359375 287.589844 290.359375 279.546875 C 290.359375 269.902344 282.726562 266.492188 269.867188 260.867188 L 262.84375 257.851562 C 242.550781 249.214844 229.097656 238.378906 229.097656 215.464844 C 229.097656 194.378906 245.15625 178.304688 270.277344 178.304688 C 288.152344 178.304688 301.007812 184.535156 310.242188 200.808594 L 288.351562 214.871094 C 283.535156 206.230469 278.308594 202.816406 270.277344 202.816406 C 262.035156 202.816406 256.8125 208.042969 256.8125 214.871094 C 256.8125 223.308594 262.035156 226.722656 274.089844 231.949219 L 281.113281 234.953125 C 305.019531 245.203125 318.484375 255.644531 318.484375 279.148438 C 318.484375 304.457031 298.601562 318.320312 271.878906 318.320312 C 245.765625 318.320312 228.898438 305.859375 220.65625 289.589844 " fill-opacity="1" fill-rule="nonzero"/></svg>