<svg xmlns="http://www.w3.org/2000/svg" xmlns:xlink="http://www.w3.org/1999/xlink" width="512" zoomAndPan="magnify" viewBox="0 0 384 383.999986" height="512" preserveAspectRatio="xMidYMid meet" version="1.0"><path fill="#cf649a" d="M 302.527344 210.613281 C 291.878906 210.675781 282.660156 213.226562 274.925781 217.023438 C 272.070312 211.382812 269.214844 206.460938 268.742188 202.78125 C 268.203125 198.511719 267.550781 195.898438 268.203125 190.796875 C 268.855469 185.691406 271.832031 178.453125 271.832031 177.859375 C 271.777344 177.324219 271.175781 174.714844 265.050781 174.65625 C 258.925781 174.597656 253.628906 175.84375 253.035156 177.449219 C 251.972656 180.414062 251.117188 183.441406 250.476562 186.527344 C 249.40625 192.105469 238.222656 211.867188 231.855469 222.253906 C 229.769531 218.21875 227.984375 214.660156 227.628906 211.8125 C 227.089844 207.539062 226.4375 204.929688 227.089844 199.824219 C 227.742188 194.722656 230.722656 187.484375 230.722656 186.890625 C 230.664062 186.351562 230.066406 183.742188 223.941406 183.683594 C 217.816406 183.628906 212.519531 184.871094 211.921875 186.476562 C 211.328125 188.082031 210.671875 191.878906 209.363281 195.558594 C 208.113281 199.238281 193.238281 232.234375 189.375 240.835938 C 187.410156 245.226562 185.6875 248.730469 184.4375 251.101562 C 183.183594 253.476562 184.378906 251.28125 184.257812 251.519531 L 182.59375 254.667969 L 182.59375 254.722656 C 181.761719 256.210938 180.867188 257.632812 180.453125 257.632812 C 180.15625 257.632812 179.558594 253.65625 180.570312 248.199219 C 182.773438 236.742188 188.128906 218.878906 188.066406 218.230469 C 188.066406 217.933594 189.082031 214.789062 184.617188 213.183594 C 180.273438 211.578125 178.726562 214.25 178.367188 214.25 C 178.011719 214.25 177.710938 215.199219 177.710938 215.199219 C 177.710938 215.199219 182.53125 195.082031 168.488281 195.082031 C 159.683594 195.082031 147.550781 204.640625 141.539062 213.359375 L 111.195312 229.917969 L 110.539062 229.203125 C 93.535156 211.089844 62.0625 198.273438 63.371094 173.945312 C 63.847656 165.101562 66.941406 141.777344 123.8125 113.535156 C 170.390625 90.390625 207.699219 96.738281 214.183594 110.859375 C 223.40625 131.035156 194.253906 168.539062 145.828125 173.949219 C 127.386719 176.027344 117.6875 168.902344 115.246094 166.234375 C 112.683594 163.445312 112.328125 163.324219 111.375 163.863281 C 109.828125 164.691406 110.78125 167.183594 111.375 168.671875 C 112.804688 172.410156 118.753906 179.058594 128.867188 182.378906 C 137.730469 185.289062 159.382812 186.890625 185.5625 176.800781 C 214.894531 165.464844 237.796875 134.015625 231.074219 107.734375 C 224.230469 80.96875 179.734375 72.1875 137.667969 87.082031 C 112.628906 95.972656 85.550781 109.855469 66.039062 128.074219 C 42.789062 149.671875 39.101562 168.546875 40.644531 176.378906 C 46.058594 204.332031 84.664062 222.550781 100.132812 236.019531 L 97.988281 237.207031 C 90.257812 241.003906 60.808594 256.375 53.429688 272.636719 C 45.101562 291.03125 54.738281 304.265625 61.164062 306.042969 C 81.035156 311.566406 101.378906 301.652344 112.386719 285.332031 C 123.332031 269.011719 122.023438 247.832031 116.96875 238.15625 L 116.789062 237.800781 L 122.855469 234.242188 C 126.78125 231.925781 130.648438 229.789062 134.039062 227.953125 C 132.136719 233.117188 130.765625 239.226562 130.050781 248.125 C 129.21875 258.570312 133.5 272.097656 139.15625 277.445312 C 141.652344 279.761719 144.628906 279.816406 146.472656 279.816406 C 153.015625 279.816406 155.992188 274.414062 159.265625 267.949219 C 163.3125 260.054688 166.878906 250.917969 166.878906 250.917969 C 166.878906 250.917969 162.417969 275.664062 174.613281 275.664062 C 179.078125 275.664062 183.535156 269.90625 185.558594 266.9375 L 185.558594 266.996094 C 185.558594 266.996094 185.679688 266.816406 185.914062 266.402344 C 186.390625 265.691406 186.628906 265.273438 186.628906 265.273438 L 186.628906 265.152344 C 188.414062 262.066406 192.402344 255.003906 198.351562 243.316406 C 206.027344 228.246094 213.402344 209.375 213.402344 209.375 C 213.402344 209.375 214.117188 214.003906 216.320312 221.601562 C 217.628906 226.109375 220.484375 231.035156 222.6875 235.839844 L 219.832031 239.757812 L 219.890625 239.820312 C 218.367188 241.832031 216.800781 243.808594 215.1875 245.753906 C 209.121094 252.992188 201.863281 261.242188 200.910156 263.617188 C 199.777344 266.40625 200.015625 268.480469 202.21875 270.144531 C 203.828125 271.328125 206.683594 271.566406 209.714844 271.328125 C 215.1875 270.972656 218.996094 269.605469 220.898438 268.777344 C 224.351562 267.546875 227.5625 265.867188 230.535156 263.730469 C 236.484375 259.339844 240.117188 253.105469 239.757812 244.796875 C 239.578125 240.226562 238.09375 235.71875 236.246094 231.445312 L 237.855469 229.070312 C 247.253906 215.363281 254.511719 200.289062 254.511719 200.289062 C 254.511719 200.289062 255.226562 204.917969 257.429688 212.515625 C 258.5625 216.375 260.820312 220.582031 262.84375 224.738281 C 254.039062 231.917969 248.503906 240.226562 246.601562 245.6875 C 243.089844 255.773438 245.828125 260.34375 251.003906 261.414062 C 253.328125 261.886719 256.65625 260.820312 259.15625 259.75 C 262.25 258.742188 266 257.023438 269.449219 254.46875 C 275.398438 250.078125 281.109375 243.964844 280.8125 235.71875 C 280.632812 231.917969 279.625 228.179688 278.253906 224.617188 C 285.75 221.535156 295.449219 219.753906 307.757812 221.234375 C 334.234375 224.320312 339.46875 240.816406 338.453125 247.699219 C 337.441406 254.582031 331.910156 258.378906 330.0625 259.566406 C 328.21875 260.695312 327.621094 261.109375 327.804688 261.941406 C 328.042969 263.1875 328.875 263.125 330.484375 262.890625 C 332.6875 262.535156 344.402344 257.25 344.878906 244.550781 C 345.59375 228.230469 330.0625 210.429688 302.523438 210.609375 Z M 98.351562 279.28125 C 89.605469 288.835938 77.292969 292.453125 72.058594 289.367188 C 66.40625 286.101562 68.609375 272.042969 79.378906 261.890625 C 85.921875 255.722656 94.429688 250.023438 100.023438 246.523438 L 105.4375 243.253906 C 105.792969 243.019531 106.03125 242.898438 106.03125 242.898438 C 106.449219 242.664062 106.925781 242.363281 107.402344 242.070312 C 111.390625 256.546875 107.582031 269.246094 98.359375 279.277344 Z M 162.3125 235.902344 C 159.273438 243.320312 152.851562 262.367188 148.988281 261.300781 C 145.65625 260.40625 143.632812 245.988281 148.328125 231.746094 C 150.710938 224.5625 155.769531 216.015625 158.742188 212.695312 C 163.5625 207.355469 168.796875 205.574219 170.105469 207.765625 C 171.652344 210.613281 164.214844 231.265625 162.3125 235.898438 Z M 215.078125 261.0625 C 213.769531 261.71875 212.582031 262.191406 212.042969 261.835938 C 211.625 261.597656 212.582031 260.707031 212.582031 260.707031 C 212.582031 260.707031 219.1875 253.640625 221.804688 250.382812 L 226.980469 243.792969 L 226.980469 244.503906 C 226.980469 253.046875 218.773438 258.746094 215.082031 261.0625 Z M 255.769531 251.804688 C 254.816406 251.09375 254.933594 248.894531 258.148438 242.011719 C 259.398438 239.28125 262.253906 234.710938 267.1875 230.382812 C 267.785156 232.160156 268.140625 233.886719 268.082031 235.484375 C 268.023438 246.164062 260.40625 250.144531 255.769531 251.804688 Z M 255.769531 251.804688 " fill-opacity="1" fill-rule="nonzero"/></svg>