<svg xmlns="http://www.w3.org/2000/svg" xmlns:xlink="http://www.w3.org/1999/xlink" width="512" zoomAndPan="magnify" viewBox="0 0 384 383.999986" height="512" preserveAspectRatio="xMidYMid meet" version="1.0"><defs><g/><clipPath id="dc832370b3"><path d="M 192 0 C 85.960938 0 0 85.960938 0 192 C 0 298.039062 85.960938 384 192 384 C 298.039062 384 384 298.039062 384 192 C 384 85.960938 298.039062 0 192 0 " clip-rule="nonzero"/></clipPath><clipPath id="7aeb16257c"><path d="M 38.398438 75.78125 L 345.898438 75.78125 L 345.898438 244 L 38.398438 244 Z M 38.398438 75.78125 " clip-rule="nonzero"/></clipPath><clipPath id="0439d5e5eb"><path d="M 47.980469 85.742188 L 336 85.742188 L 336 225 L 47.980469 225 Z M 47.980469 85.742188 " clip-rule="nonzero"/></clipPath></defs><g clip-path="url(#dc832370b3)"><rect x="-38.4" width="460.8" fill="#f7a501" y="-38.399999" height="460.799983" fill-opacity="1"/></g><path fill="#1a1c1e" d="M 314.859375 307.972656 L 192.144531 289.527344 L 69.4375 307.972656 C 67.3125 308.292969 65.890625 305.632812 67.1875 303.742188 L 73.671875 294.21875 C 74.039062 293.6875 74.578125 293.316406 75.175781 293.199219 L 175.300781 273.308594 L 175.300781 248.785156 L 183.535156 248.785156 L 183.535156 259.28125 C 183.535156 264.515625 187.386719 268.765625 192.144531 268.765625 C 196.902344 268.765625 200.769531 264.515625 200.769531 259.28125 L 200.769531 248.785156 L 208.988281 248.785156 L 208.988281 273.308594 L 309.125 293.199219 C 309.722656 293.316406 310.261719 293.6875 310.617188 294.21875 L 317.113281 303.742188 C 318.398438 305.632812 316.976562 308.292969 314.859375 307.972656 " fill-opacity="1" fill-rule="nonzero"/><g clip-path="url(#7aeb16257c)"><path fill="#1a1c1e" d="M 336.386719 224.453125 L 47.910156 224.453125 L 47.910156 86.210938 L 336.386719 86.210938 Z M 206.390625 236.550781 C 205.914062 237.070312 205.25 237.394531 204.523438 237.394531 L 179.785156 237.394531 C 178.324219 237.394531 177.152344 236.097656 177.152344 234.5 C 177.152344 233.699219 177.449219 232.980469 177.921875 232.449219 C 178.398438 231.925781 179.046875 231.601562 179.785156 231.601562 L 204.523438 231.601562 C 205.976562 231.601562 207.15625 232.902344 207.15625 234.5 C 207.15625 235.296875 206.859375 236.015625 206.390625 236.550781 Z M 338.292969 75.785156 L 46.003906 75.785156 C 41.835938 75.785156 38.4375 79.527344 38.4375 84.113281 L 38.4375 235.4375 C 38.4375 240.027344 41.835938 243.765625 46.003906 243.765625 L 338.292969 243.765625 C 342.464844 243.765625 345.863281 240.027344 345.863281 235.4375 L 345.863281 84.113281 C 345.863281 79.527344 342.464844 75.785156 338.292969 75.785156 " fill-opacity="1" fill-rule="nonzero"/></g><g clip-path="url(#0439d5e5eb)"><path fill="#f7a501" d="M 47.980469 85.742188 L 335.980469 85.742188 L 335.980469 224.34375 L 47.980469 224.34375 Z M 47.980469 85.742188 " fill-opacity="1" fill-rule="nonzero"/></g><g fill="#1a1c1e" fill-opacity="1"><g transform="translate(67.70757, 211.031753)"><g><path d="M 30 -43.796875 C 39.0625 -26.734375 44.257812 -16.535156 45.59375 -13.203125 C 46.925781 -9.867188 47.59375 -7.367188 47.59375 -5.703125 C 47.59375 -4.035156 46.957031 -3.203125 45.6875 -3.203125 C 44.425781 -3.203125 43.128906 -4.332031 41.796875 -6.59375 C 35.265625 -16.59375 27.664062 -25.859375 19 -34.390625 C 16.863281 -36.390625 15.796875 -37.957031 15.796875 -39.09375 C 15.796875 -40.226562 15.992188 -41.0625 16.390625 -41.59375 C 16.796875 -42.125 18.265625 -43.554688 20.796875 -45.890625 C 23.328125 -48.222656 28.394531 -53.125 36 -60.59375 C 50.132812 -74.320312 62.195312 -85.320312 72.1875 -93.59375 C 72.988281 -94.257812 73.722656 -94.59375 74.390625 -94.59375 C 75.054688 -94.59375 75.390625 -93.890625 75.390625 -92.484375 C 75.390625 -91.085938 74.191406 -88.925781 71.796875 -86 C 63.929688 -76.925781 50 -62.859375 30 -43.796875 Z M 30 -43.796875 "/></g></g></g><g fill="#1a1c1e" fill-opacity="1"><g transform="translate(143.502711, 211.031753)"><g><path d="M 82.1875 -105.984375 C 83.65625 -107.316406 85.421875 -107.984375 87.484375 -107.984375 C 89.554688 -107.984375 90.59375 -107.519531 90.59375 -106.59375 C 90.59375 -106.320312 90.394531 -105.921875 90 -105.390625 C 81.195312 -95.796875 68.296875 -79.765625 51.296875 -57.296875 C 34.296875 -34.828125 21.128906 -15.394531 11.796875 1 C 10.203125 3.53125 8.132812 4.796875 5.59375 4.796875 C 4.394531 4.796875 3.796875 4.394531 3.796875 3.59375 C 3.796875 0.257812 15.628906 -17.671875 39.296875 -50.203125 C 62.960938 -82.734375 77.257812 -101.328125 82.1875 -105.984375 Z M 82.1875 -105.984375 "/></g></g></g><g fill="#1a1c1e" fill-opacity="1"><g transform="translate(236.896723, 211.031753)"><g><path d="M 61.796875 -54 C 50.066406 -75.726562 44.203125 -88.257812 44.203125 -91.59375 C 44.203125 -92.925781 44.5 -93.789062 45.09375 -94.1875 C 45.695312 -94.59375 46.128906 -94.796875 46.390625 -94.796875 C 47.597656 -94.796875 48.867188 -93.660156 50.203125 -91.390625 C 56.203125 -81.921875 63.734375 -72.65625 72.796875 -63.59375 C 73.460938 -62.789062 73.992188 -62.125 74.390625 -61.59375 C 75.585938 -60.394531 76.1875 -59.628906 76.1875 -59.296875 C 76.1875 -58.960938 76.1875 -58.53125 76.1875 -58 C 76.1875 -57.46875 75.953125 -56.96875 75.484375 -56.5 C 75.023438 -56.03125 74.691406 -55.695312 74.484375 -55.5 C 74.285156 -55.300781 73.785156 -54.867188 72.984375 -54.203125 C 72.191406 -53.535156 71.023438 -52.46875 69.484375 -51 C 67.953125 -49.53125 64.382812 -46.09375 58.78125 -40.6875 C 53.1875 -35.289062 48.722656 -30.992188 45.390625 -27.796875 C 28.460938 -11.660156 19.195312 -3.59375 17.59375 -3.59375 C 16.800781 -3.59375 16.40625 -4.257812 16.40625 -5.59375 C 16.40625 -6.925781 17.601562 -8.992188 20 -11.796875 C 25.863281 -18.992188 39.796875 -33.0625 61.796875 -54 Z M 61.796875 -54 "/></g></g></g></svg>